<?xml version="1.0" encoding="UTF-8"?> <!-- Generator: Adobe Illustrator 24.2.1, SVG Export Plug-In . SVG Version: 6.00 Build 0) --> <svg xmlns="http://www.w3.org/2000/svg" xmlns:xlink="http://www.w3.org/1999/xlink" version="1.1" id="Ebene_1" x="0px" y="0px" viewBox="0 0 342 90" style="enable-background:new 0 0 342 90;" xml:space="preserve"> <style type="text/css"> .st0{fill:#385C6B;} .st1{fill:#239398;} </style> <g id="Ebene_2_1_"> <g id="Ebene_1-2"> <path class="st0" d="M31.6,56.5h-4.8v-15c0.2-2.3-1.6-4.3-3.9-4.5c0,0-0.1,0-0.1,0h-0.3c-2.3-0.1-4.2,1.8-4.3,4.1 c0,0.1,0,0.2,0,0.3v15h-4.8v-15c0.1-2.3-1.6-4.3-4-4.4c-0.1,0-0.2,0-0.3,0c-2.3-0.1-4.2,1.8-4.3,4.1c0,0.1,0,0.2,0,0.3v15H0v-15 c0-5.1,3.9-8.7,9-8.7c2.7-0.1,5.3,1.1,6.8,3.3c1.6-2.2,4.2-3.4,6.8-3.3c5.2,0,8.9,3.5,8.9,8.7V56.5z"></path> <path class="st0" d="M38.2,56.5V35.2H43v21.3H38.2z"></path> <path class="st0" d="M47.7,45c-0.2-6.5,4.9-12,11.4-12.2c0.3,0,0.6,0,0.9,0c6.5-0.2,12,4.9,12.2,11.5c0,0.2,0,0.5,0,0.7 c0.2,6.5-5,12-11.5,12.2c-0.2,0-0.4,0-0.7,0c-6.5,0.2-12-4.9-12.2-11.4C47.7,45.5,47.7,45.3,47.7,45z M67.3,45 c0-4.6-3-7.9-7.3-7.9s-7.3,3.3-7.3,7.9s3,7.9,7.3,7.9S67.3,49.6,67.3,45z"></path> <path class="st0" d="M94.3,52.3V42.2h-4.7v10.1H81l4-18.8h-4.5l-4.9,23h14v9.8h4.7v-9.8h4.4v-4.2L94.3,52.3z"></path> <path class="st0" d="M109.5,52.3l4.5-3.7c3.6-3,5.3-5,5.3-8.4c0-2.1-0.9-4.1-2.5-5.4c-1.9-1.4-4.3-2.1-6.6-2 c-3.7-0.2-7.3,1.6-9.4,4.7v0.1l2.8,2.9l0.1-0.1c1.4-2.1,3.8-3.4,6.3-3.4c2.8,0,4.6,1.5,4.6,3.8c0,2.3-1.4,3.6-5.4,6.9l-1.2,1 l-6.6,5.6v2.1H120v-4.1L109.5,52.3z"></path> <path class="st1" d="M59.8,72c-7.1,0-14-2.8-19-7.8c-0.5-0.5-0.5-1.2,0-1.7c0.5-0.5,1.2-0.5,1.7,0c9.6,9.5,25.1,9.5,34.7-0.1 c0.5-0.5,1.2-0.5,1.7,0c0.5,0.5,0.5,1.2,0,1.7l0,0C73.9,69.1,67,72,59.8,72z"></path> <path class="st1" d="M97.9,24.4c-0.4,0-0.8-0.2-1.1-0.6C85.1,3.4,59.1-3.6,38.7,8.1c-6.5,3.7-12,9.2-15.7,15.7 c-0.4,0.6-1.1,0.7-1.7,0.4c-0.5-0.3-0.7-1-0.4-1.6C33.3,1,60.8-6.4,82.3,6c6.9,4,12.6,9.7,16.6,16.6c0.3,0.6,0.1,1.3-0.4,1.6 c0,0,0,0,0,0l0,0C98.3,24.4,98.1,24.5,97.9,24.4z"></path> <circle class="st1" cx="59.9" cy="44.9" r="4.2"></circle> <path class="st1" d="M40.6,31.9c2.3,0,4.2-1.9,4.2-4.2c0-0.6-0.1-1.3-0.4-1.8c9.8-7.9,24-7.2,32.9,1.7c0.5,0.5,1.2,0.5,1.7,0 c0.5-0.5,0.5-1.2,0-1.7l0,0l0,0c-9.8-9.8-25.5-10.6-36.2-1.8c-0.6-0.4-1.4-0.6-2.1-0.6c-2.3,0.1-4.1,2.1-4,4.4 C36.7,30.1,38.5,31.8,40.6,31.9L40.6,31.9z"></path> <path class="st1" d="M92,71.4c-2.3,0-4.2,1.9-4.2,4.2c0,0.5,0.1,0.9,0.2,1.4c-7.7,6.9-17.7,10.6-28.1,10.6 c-15.1-0.1-29.1-8.1-36.8-21.2c-0.3-0.6-1-0.8-1.6-0.5c-0.6,0.3-0.8,1-0.5,1.6c0,0,0,0,0,0.1C29.1,81.4,43.9,90,59.9,90 c10.8,0.1,21.3-3.9,29.5-11c1.8,1.4,4.5,1.1,5.9-0.7c1.4-1.8,1.1-4.5-0.7-5.9C93.8,71.8,92.9,71.5,92,71.4L92,71.4z"></path> <path class="st1" d="M138.3,56.1c-0.3-0.3-0.4-0.6-0.4-1V42.3c0-0.4,0.1-0.7,0.4-1c0.3-0.2,0.6-0.4,1-0.3h4.3 c2.1-0.1,4.2,0.6,5.8,2c1.5,1.5,2.2,3.6,2.1,5.7c0.1,2.1-0.6,4.2-2.1,5.7c-1.6,1.4-3.7,2.2-5.8,2h-4.3 C139,56.5,138.6,56.4,138.3,56.1z M143.5,54.1c3.5,0,5.3-1.8,5.3-5.4c0-3.6-1.7-5.4-5.3-5.4h-2.7v10.9L143.5,54.1z"></path> <path class="st1" d="M154.4,43.1c-0.6-0.6-0.6-1.5-0.1-2c0,0,0,0,0.1,0c0.7-0.5,1.7-0.5,2.4,0c0.6,0.6,0.6,1.5,0.1,2 c0,0,0,0-0.1,0C156.1,43.7,155.1,43.7,154.4,43.1z M154.6,56.3c-0.3-0.3-0.4-0.6-0.4-1v-8.5c-0.1-0.4,0.1-0.8,0.4-1 c0.3-0.2,0.6-0.4,1-0.3c0.4,0,0.7,0.1,1,0.3c0.3,0.3,0.4,0.6,0.4,1v8.5c0.1,0.4-0.1,0.8-0.4,1C156,56.8,155.2,56.8,154.6,56.3z"></path> <path class="st1" d="M168.8,53.8c0.2,0.2,0.2,0.5,0.2,0.8c0,0.5-0.3,0.9-0.8,1.1c-0.5,0.3-1.1,0.5-1.7,0.6 c-0.6,0.2-1.2,0.2-1.8,0.2c-2.9,0.2-5.4-1.9-5.6-4.7v-0.8c0-1,0.2-2,0.6-2.9c0.4-0.8,1-1.5,1.9-2c0.8-0.5,1.8-0.7,2.7-0.7 c0.9,0,1.7,0.2,2.5,0.6c0.7,0.4,1.3,1.1,1.6,1.8c0.4,0.9,0.6,1.8,0.6,2.7c0,0.6-0.2,1-0.9,1h-6.4c0,0.8,0.3,1.6,0.9,2.2 c0.6,0.5,1.3,0.8,2.1,0.7c0.4,0,0.8-0.1,1.2-0.2c0.4-0.1,0.8-0.3,1.2-0.5c0.3-0.2,0.6-0.3,0.9-0.3 C168.4,53.6,168.7,53.6,168.8,53.8z M162.7,48.1c-0.5,0.6-0.8,1.3-0.8,2h4.9c0-0.7-0.2-1.5-0.6-2 C165.2,47.1,163.7,47.2,162.7,48.1z"></path> <path class="st1" d="M187.2,41.2c0.3,0.2,0.4,0.6,0.4,0.9v13.1c0,0.4-0.1,0.7-0.4,0.9c-0.6,0.4-1.4,0.4-1.9,0 c-0.3-0.2-0.4-0.6-0.4-0.9v-0.5c-0.3,0.6-0.8,1.1-1.4,1.4c-0.6,0.3-1.3,0.5-2.1,0.5c-0.9,0-1.7-0.2-2.4-0.7 c-0.7-0.5-1.3-1.2-1.7-2c-0.4-0.9-0.6-2-0.6-3c0-1,0.2-2,0.6-2.9c0.4-0.8,1-1.5,1.7-1.9c1.4-0.8,3.1-0.9,4.5-0.1 c0.6,0.3,1.1,0.8,1.4,1.3v-5.2c0-0.3,0.1-0.7,0.4-0.9c0.3-0.2,0.6-0.4,1-0.3C186.7,40.9,187,41,187.2,41.2z M184.2,53.6 c0.5-0.8,0.8-1.7,0.7-2.6c0-0.9-0.2-1.8-0.7-2.6c-0.5-0.6-1.2-0.9-2-0.9c-0.8,0-1.5,0.3-2,0.9c-0.5,0.7-0.8,1.6-0.7,2.5 c0,0.9,0.2,1.8,0.7,2.6c1,1.1,2.7,1.2,3.8,0.2C184.1,53.8,184.1,53.7,184.2,53.6L184.2,53.6z"></path> <path class="st1" d="M190.6,43.1c-0.3-0.3-0.5-0.7-0.4-1c0-0.4,0.2-0.7,0.4-1c0.3-0.3,0.8-0.4,1.2-0.4c0.4-0.1,0.9,0.1,1.2,0.3 c0.6,0.6,0.6,1.5,0.1,2c0,0,0,0-0.1,0C192.3,43.7,191.3,43.7,190.6,43.1L190.6,43.1z M190.8,56.3c-0.3-0.3-0.4-0.6-0.4-1v-8.5 c0-0.4,0.1-0.8,0.4-1c0.3-0.2,0.6-0.4,0.9-0.3c0.4,0,0.7,0.1,1,0.3c0.3,0.3,0.4,0.6,0.4,1v8.5c0.1,0.4-0.1,0.8-0.4,1 c-0.3,0.2-0.6,0.4-1,0.3C191.4,56.6,191.1,56.5,190.8,56.3z"></path> <path class="st1" d="M206,45.9c0.3,0.2,0.4,0.6,0.4,0.9v8.7c0.1,1.4-0.4,2.8-1.4,3.8c-1.2,0.9-2.7,1.4-4.1,1.3 c-1.4,0.1-2.8-0.3-4-0.9c-0.5-0.2-0.8-0.7-0.8-1.1c0-0.3,0.1-0.5,0.2-0.7c0.1-0.2,0.4-0.3,0.6-0.3c0.2,0,0.3,0,0.5,0.1 c0.2,0.1,0.4,0.1,0.6,0.2c0.4,0.2,1,0.3,1.4,0.5c0.5,0.1,1,0.2,1.4,0.1c1.9,0,2.8-0.9,2.8-2.8v-1.4c-0.3,0.6-0.8,1.1-1.4,1.4 c-0.6,0.3-1.4,0.5-2.1,0.5c-1.8,0-3.4-1-4.2-2.5c-0.4-0.9-0.6-1.8-0.6-2.8c0-1,0.2-1.9,0.6-2.8c0.4-0.8,0.9-1.5,1.7-1.9 c1.4-0.8,3.1-0.9,4.6-0.1c0.6,0.3,1.1,0.8,1.4,1.4v-0.5c0-0.3,0.1-0.7,0.4-0.9c0.4-0.6,1.2-0.7,1.8-0.3 C205.9,45.8,206,45.8,206,45.9L206,45.9z M203,53.2c1-1.4,1-3.3,0-4.7c-1.1-1.1-2.8-1.1-3.9-0.1c0,0,0,0-0.1,0.1l0,0 c-1,1.4-1,3.3,0,4.7C200.1,54.3,201.9,54.3,203,53.2C203,53.2,203,53.2,203,53.2z"></path> <path class="st1" d="M209.4,43.1c-0.6-0.6-0.6-1.5-0.1-2c0,0,0,0,0.1,0c0.3-0.3,0.8-0.4,1.2-0.4c0.4,0,0.8,0.1,1.1,0.4 c0.6,0.6,0.6,1.5,0.1,2c0,0,0,0-0.1,0C211.1,43.7,210.1,43.7,209.4,43.1z M209.6,56.3c-0.3-0.3-0.4-0.6-0.4-1v-8.5 c-0.1-0.4,0.1-0.8,0.4-1c0.3-0.2,0.6-0.4,1-0.3c0.4,0,0.7,0.1,1,0.3c0.3,0.3,0.4,0.6,0.4,1v8.5c0.1,0.4-0.1,0.8-0.4,1 c-0.3,0.2-0.6,0.4-1,0.3C210.2,56.7,209.9,56.5,209.6,56.3L209.6,56.3z"></path> <path class="st1" d="M221.4,55.6c0,0.3-0.2,0.6-0.4,0.8c-0.4,0.2-0.8,0.3-1.2,0.2l-0.6,0c-2.4-0.1-3.7-1.5-3.7-3.9v-4.8h-1.1 c-0.3,0-0.6-0.1-0.9-0.2c-0.4-0.4-0.4-1.1,0-1.5v0c0.3-0.2,0.6-0.3,0.9-0.2h1.1v-2c0-0.4,0.1-0.7,0.4-0.9c0.6-0.5,1.4-0.5,2,0 c0.3,0.3,0.4,0.6,0.4,0.9v2h1.9c0.3,0,0.6,0.1,0.9,0.2c0.4,0.4,0.5,1.1,0.1,1.5c0,0,0,0-0.1,0.1l0,0c-0.3,0.2-0.6,0.3-0.9,0.2 h-1.9v5c-0.1,0.8,0.4,1.6,1.3,1.7c0.1,0,0.2,0,0.2,0l0.6,0C221,54.6,221.4,55,221.4,55.6z"></path> <path class="st1" d="M230.7,46.6c0.8,0.9,1.2,2.2,1.1,3.4v5.3c0,0.7-0.6,1.3-1.3,1.4c-0.3,0-0.7-0.1-0.9-0.4 c-0.2-0.2-0.4-0.6-0.4-0.9v-0.5c-0.2,0.6-0.6,1-1.1,1.3c-0.6,0.3-1.2,0.5-1.9,0.5c-0.7,0-1.3-0.2-1.9-0.4c-0.6-0.3-1-0.7-1.4-1.2 c-0.3-0.5-0.5-1.1-0.5-1.7c-0.1-0.7,0.2-1.3,0.6-1.8c0.5-0.5,1.2-0.9,1.9-1c1.2-0.2,2.5-0.3,3.7-0.3h0.6v-0.5 c0.1-0.6-0.1-1.1-0.4-1.6c-0.4-0.4-1-0.5-1.5-0.5c-0.4,0-0.9,0.1-1.3,0.2c-0.5,0.1-1,0.3-1.5,0.5c-0.3,0.2-0.6,0.3-0.9,0.3 c-0.3,0-0.5-0.1-0.6-0.3c-0.2-0.2-0.2-0.5-0.2-0.7c0-0.2,0.1-0.5,0.2-0.6c0.2-0.2,0.4-0.4,0.6-0.5c0.6-0.3,1.2-0.5,1.8-0.6 c0.7-0.2,1.4-0.2,2.1-0.2C228.6,45.4,229.8,45.8,230.7,46.6z M228.5,54c0.5-0.5,0.7-1.2,0.7-1.9v-0.4h-0.4c-0.8,0-1.5,0.1-2.2,0.1 c-0.4,0-0.8,0.2-1.1,0.4c-0.2,0.2-0.4,0.6-0.4,0.9c0,0.4,0.2,0.9,0.5,1.1c0.3,0.3,0.8,0.5,1.2,0.4C227.5,54.7,228.1,54.5,228.5,54 L228.5,54z"></path> <path class="st1" d="M235,56.3c-0.3-0.3-0.4-0.6-0.4-1V42.2c-0.1-0.4,0.1-0.8,0.4-1c0.3-0.2,0.6-0.4,1-0.3c0.4,0,0.7,0.1,1,0.3 c0.3,0.3,0.4,0.6,0.4,1v13.1c0.1,0.4-0.1,0.8-0.4,1c-0.3,0.2-0.6,0.4-1,0.3C235.6,56.7,235.3,56.5,235,56.3z"></path> <path class="st1" d="M249.2,53.8c0.2,0.2,0.3,0.5,0.2,0.8c0,0.5-0.3,0.9-0.8,1.1c-0.5,0.3-1.1,0.5-1.7,0.6 c-0.6,0.2-1.2,0.2-1.8,0.2c-2.9,0.2-5.4-1.9-5.6-4.7v-0.8c0-1,0.2-2,0.6-2.9c0.4-0.8,1-1.5,1.9-2c0.8-0.5,1.8-0.7,2.7-0.7 c0.9,0,1.7,0.2,2.5,0.6c0.7,0.4,1.3,1.1,1.6,1.8c0.4,0.9,0.6,1.8,0.6,2.7c0,0.6-0.2,1-0.9,1h-6.4c0,0.8,0.3,1.6,0.9,2.2 c0.6,0.5,1.3,0.8,2.1,0.7c0.4,0,0.8-0.1,1.2-0.2c0.4-0.1,0.8-0.3,1.2-0.5c0.3-0.2,0.6-0.3,1-0.3C248.8,53.6,249.1,53.7,249.2,53.8 z M243,48.1c-0.5,0.6-0.8,1.3-0.8,2h4.9c0-0.7-0.2-1.5-0.6-2c-0.4-0.5-1.1-0.7-1.7-0.7C244.2,47.4,243.5,47.6,243,48.1z"></path> <path class="st1" d="M272,55.4c0,0.3-0.1,0.6-0.4,0.8c-0.3,0.3-0.6,0.4-1,0.3c-0.5,0-0.9-0.3-1.1-0.7l-1.3-2.9h-7.6l-1.3,2.9 c-0.2,0.5-0.6,0.8-1.1,0.7c-0.3,0-0.6-0.1-0.9-0.3c-0.3-0.2-0.4-0.5-0.4-0.8c0-0.2,0.1-0.4,0.1-0.6l6.1-13 c0.1-0.3,0.3-0.5,0.6-0.7c0.5-0.3,1.2-0.3,1.8,0c0.3,0.2,0.5,0.4,0.6,0.6l6,13C272,54.9,272,55.2,272,55.4z M261.5,50.7h5.8 l-2.9-6.5L261.5,50.7z"></path> <path class="st1" d="M283,46.6c0.7,1,1,2.2,1,3.3v5.4c0,0.4-0.1,0.7-0.4,1c-0.6,0.5-1.4,0.5-2,0c-0.3-0.3-0.4-0.6-0.4-1v-5.2 c0.1-0.6-0.1-1.3-0.5-1.8c-0.4-0.4-0.9-0.6-1.5-0.5c-0.7,0-1.4,0.2-1.9,0.7c-0.5,0.5-0.8,1.3-0.7,2v4.9c0,0.4-0.1,0.8-0.4,1 c-0.6,0.5-1.4,0.5-2,0c-0.3-0.3-0.4-0.6-0.4-1v-8.5c0-0.3,0.1-0.7,0.4-0.9c0.3-0.2,0.6-0.4,1-0.3c0.4,0,0.7,0.1,1,0.3 c0.2,0.2,0.4,0.6,0.4,0.9v0.6c0.3-0.6,0.8-1.1,1.4-1.4c0.6-0.3,1.4-0.5,2.1-0.5C281.2,45.4,282.3,45.8,283,46.6z"></path> <path class="st1" d="M293.3,55.6c0,0.3-0.1,0.6-0.4,0.8c-0.4,0.2-0.8,0.3-1.2,0.2l-0.6,0c-2.5-0.1-3.6-1.5-3.6-3.9v-4.8h-1.1 c-0.3,0-0.6-0.1-0.9-0.2c-0.4-0.4-0.5-1.1-0.1-1.5c0,0,0,0,0.1-0.1l0,0c0.3-0.2,0.6-0.3,0.9-0.2h1.1v-2c0-0.4,0.1-0.7,0.4-0.9 c0.6-0.5,1.4-0.5,2,0c0.3,0.3,0.4,0.6,0.4,0.9v2h1.9c0.3,0,0.6,0.1,0.9,0.2c0.4,0.4,0.5,1.1,0.1,1.5c0,0,0,0-0.1,0.1l0,0 c-0.3,0.2-0.6,0.3-0.9,0.2h-1.9v5c-0.1,0.8,0.4,1.6,1.3,1.7c0.1,0,0.2,0,0.2,0l0.6,0c0.5,0,0.9,0.3,1,0.8 C293.3,55.5,293.3,55.5,293.3,55.6z"></path> <path class="st1" d="M309.8,45.7c0.2-0.1,0.4-0.2,0.6-0.2c0.3,0,0.7,0.1,0.9,0.3c0.3,0.2,0.4,0.5,0.4,0.8c0,0.2,0,0.3-0.1,0.5 l-3.6,8.5c-0.1,0.3-0.3,0.5-0.5,0.6c-0.2,0.1-0.5,0.2-0.8,0.2c-0.3,0-0.5-0.1-0.8-0.2c-0.3-0.1-0.5-0.4-0.5-0.6l-2.6-6.2l-2.5,6.3 c-0.1,0.3-0.3,0.5-0.5,0.6c-0.2,0.1-0.5,0.2-0.8,0.2c-0.3,0-0.5-0.1-0.8-0.2c-0.3-0.1-0.5-0.4-0.5-0.6l-3.6-8.5 c-0.1-0.2-0.1-0.3-0.1-0.5c0-0.3,0.2-0.7,0.5-0.8c0.3-0.2,0.6-0.4,1-0.3c0.2,0,0.5,0.1,0.7,0.2c0.2,0.2,0.4,0.4,0.4,0.6l2.6,6.7 l2.6-6.6c0.1-0.3,0.3-0.5,0.5-0.6c0.5-0.2,1-0.2,1.5,0c0.2,0.1,0.4,0.4,0.5,0.6l2.6,6.6l2.5-6.7C309.4,46.1,309.6,45.9,309.8,45.7 z"></path> <path class="st1" d="M315.4,56c-0.8-0.5-1.5-1.1-1.9-1.9c-0.9-1.9-0.9-4.1,0-6c0.4-0.8,1.1-1.5,1.9-1.9c1.8-0.9,3.9-0.9,5.8,0 c0.8,0.5,1.5,1.1,1.9,1.9c0.9,1.9,0.9,4.1,0,6c-0.4,0.8-1.1,1.5-1.9,1.9C319.4,56.9,317.3,56.9,315.4,56z M320.3,53.7 c0.9-1.6,0.9-3.6,0-5.2c-1-1.1-2.7-1.2-3.8-0.2c-0.1,0.1-0.2,0.1-0.2,0.2c-0.5,0.8-0.8,1.7-0.7,2.6c0,0.9,0.2,1.8,0.7,2.6 c0.5,0.6,1.2,0.9,2,0.9C319.1,54.6,319.9,54.3,320.3,53.7z"></path> <path class="st1" d="M332.8,45.8c0.2,0.2,0.4,0.5,0.4,0.8c0,0.3-0.1,0.7-0.3,0.9c-0.3,0.2-0.6,0.4-1,0.4h-0.6 c-0.7,0-1.4,0.3-1.9,0.9c-0.4,0.5-0.6,1.2-0.6,1.8v4.6c0.1,0.4-0.1,0.8-0.4,1c-0.3,0.2-0.6,0.4-1,0.3c-0.4,0-0.7-0.1-1-0.3 c-0.3-0.3-0.4-0.6-0.4-1v-8.5c0-0.4,0.1-0.7,0.4-0.9c0.3-0.2,0.6-0.4,1-0.3c0.3,0,0.6,0.1,0.9,0.3c0.2,0.2,0.4,0.6,0.4,0.9v0.8 c0.3-0.6,0.7-1.1,1.2-1.5c0.6-0.3,1.2-0.6,1.9-0.6h0.3C332.3,45.5,332.6,45.6,332.8,45.8z"></path> <path class="st1" d="M342,55.6c0,0.3-0.1,0.6-0.4,0.8c-0.4,0.2-0.8,0.3-1.2,0.2l-0.6,0c-2.5-0.1-3.6-1.5-3.6-3.9v-4.8H335 c-0.3,0-0.6-0.1-0.9-0.2c-0.4-0.4-0.4-1.1,0-1.5c0.3-0.2,0.6-0.3,0.9-0.2h1.1v-2c0-0.4,0.1-0.7,0.4-0.9c0.6-0.5,1.4-0.5,2,0 c0.3,0.2,0.4,0.6,0.4,0.9v2h1.9c0.3,0,0.6,0.1,0.9,0.2c0.4,0.4,0.4,1.1,0,1.5c-0.3,0.2-0.6,0.3-0.9,0.2h-1.9v5 c-0.1,0.8,0.4,1.6,1.3,1.7c0.1,0,0.2,0,0.2,0l0.6,0C341.6,54.6,342,55,342,55.6z"></path> </g> </g> </svg> 